# xmcd
#
# Track frame offsets:
#	150
#	14897
#	27885
#	44807
#	56862
#	76752
#	95195
#	108340
#	122312
#	135700
#	150872
#
# Disc length: 2302 seconds
#
# Revision: 2
# Processed by: cddbd v1.5.2PL0 Copyright (c) Steve Scherf et al.
# Submitted via: EZCDAudioConverter 6.0.5.1
#
DISCID=8d08fc0b
DTITLE=Crystal Gayle - Someday
DYEAR=1995
DGENRE=Country
TTITLE0=Anchor Deep
TTITLE1=Diamonds From Dust
TTITLE2=My Old Friend
TTITLE3=He'll Be There
TTITLE4=I Saw The Light - Medley
TTITLE5=Someday
TTITLE6=Ageless Dancer
TTITLE7=Where Dear Friends Never Part
TTITLE8=Would You Believe
TTITLE9=I Know, I Know
TTITLE10=I Believe - Medley
EXTD=
EXTT0=
EXTT1=
EXTT2=
EXTT3=
EXTT4=
EXTT5=
EXTT6=
EXTT7=
EXTT8=
EXTT9=
EXTT10=
PLAYORDER=
